<svg xmlns="http://www.w3.org/2000/svg" viewBox="0 0 64 64" role="img" aria-label="Brana Leather favicon">
  <defs>
    <linearGradient id="bg" x1="0" y1="0" x2="1" y2="1">
      <stop offset="0%" stop-color="#161616" />
      <stop offset="100%" stop-color="#1F1F1F" />
    </linearGradient>
    <linearGradient id="gold" x1="0" y1="0" x2="1" y2="1">
      <stop offset="0%" stop-color="#D0A242" />
      <stop offset="100%" stop-color="#B8860B" />
    </linearGradient>
  </defs>

  <rect x="2" y="2" width="60" height="60" rx="14" fill="url(#bg)" />
  <rect x="2" y="2" width="60" height="60" rx="14" fill="none" stroke="url(#gold)" stroke-width="2.4" />

  <path
    d="M22 15h12.6c7.4 0 12.4 4.2 12.4 10.6c0 5-3 8.6-7.8 10c5 1.2 8.4 5.2 8.4 10.6c0 7.2-5.6 12-13.8 12H22zM29.2 21.4v11.4h5.2c3.5 0 5.6-2 5.6-5.6c0-3.7-2.1-5.8-5.6-5.8zm0 17.4v13h6c4 0 6.3-2.3 6.3-6.5c0-4-2.3-6.5-6.2-6.5z"
    fill="url(#gold)"
  />
</svg>
